#!OML:ASF F:\VICON\USERDATA\INSTALL\Justin_Nancy\Justin_Nancy.ASF
:FULLY-SPECIFIED
:DEGREES
114
root 0.493228 16.5425 13.4731 4.61683 -0.490192 2.73464
lowerback 11.1607 0.811762 -3.59348
upperback 0.991253 0.660089 0.512504
thorax -5.27165 0.410255 2.46185
lowerneck -21.5345 -4.6352 -9.44865
upperneck 12.0529 -5.28411 10.2779
head 7.77157 -1.97637 4.29762
rclavicle 8.24956e-015 -7.95139e-016
rhumerus -48.3757 4.34338 -95.3995
rradius 94.7515
rwrist -8.22532
rhand -16.5831 25.9436
rfingers 7.12502
rthumb 9.63763 -3.81598
lclavicle 8.24956e-015 -7.95139e-016
lhumerus -44.1774 -11.0047 90.2496
lradius 108.015
lwrist 27.1971
lhand -19.5081 12.8397
lfingers 7.12502
lthumb 6.81467 42.71
rfemur -22.9185 -3.8195 15.322
rtibia 104.871
rfoot 4.25647 2.77299
rtoes -8.90947
lfemur -19.707 -1.53181 -25.7274
ltibia 46.9041
lfoot -24.6815 2.06892
ltoes -11.3806
115
root 0.489879 16.5595 13.8491 4.75605 -0.890409 3.03102
lowerback 11.1584 0.673655 -4.07125
upperback 0.949185 0.419036 0.552329
thorax -5.30179 0.30404 2.81154
lowerneck -21.6842 -4.57578 -9.49544
upperneck 12.0839 -5.14194 10.0795
head 7.78571 -1.92621 4.25663
rclavicle 8.54774e-015 5.96354e-015
rhumerus -49.3955 4.5517 -95.1639
rradius 95.1586
rwrist -8.36377
rhand -16.0463 26.1745
rfingers 7.12502
rthumb 10.1555 -3.56036
lclavicle 8.54774e-015 5.96354e-015
lhumerus -42.868 -10.4613 90.211
lradius 108.255
lwrist 26.5311
lhand -19.674 11.608
lfingers 7.12502
lthumb 6.65452 41.4835
rfemur -25.798 -4.12451 15.0055
rtibia 105.713
rfoot 4.81757 3.36582
rtoes -4.75164
lfemur -17.9381 -1.52185 -26.1699
ltibia 46.2726
lfoot -24.637 2.98175
ltoes -13.1521
116
root 0.481565 16.6078 14.243 4.72523 -1.26557 3.11898
lowerback 11.2023 0.506842 -4.36372
upperback 1.03486 0.163899 0.607519
thorax -5.21685 0.182224 3.07492
lowerneck -22.1056 -4.42938 -9.43879
upperneck 12.1786 -4.91238 9.98837
head 7.85848 -1.81168 4.24799
rclavicle 4.57205e-015 3.97569e-016
rhumerus -50.3446 4.91859 -95.1179
rradius 95.8897
rwrist -8.81981
rhand -15.474 26.3227
rfingers 7.12502
rthumb 10.7075 -3.38449
lclavicle 4.57205e-015 3.97569e-016
lhumerus -41.5316 -9.88253 90.0489
lradius 108.645
lwrist 26.0012
lhand -20.1316 11.9121
lfingers 7.12502
lthumb 6.21276 41.801
rfemur -28.0738 -4.25214 15.1576
rtibia 105.866
rfoot 3.76952 3.45811
rtoes -6.35965
lfemur -15.8511 -1.53491 -26.3725
ltibia 45.4012
lfoot -24.4356 3.51708
ltoes -14.6609
117
root 0.472857 16.6565 14.6262 4.79485 -1.43081 3.1104
lowerback 11.2862 0.219893 -4.54526
upperback 1.0245 -0.237008 0.727839
thorax -5.23889 -0.00908418 3.36739
lowerneck -22.5198 -4.21462 -9.28887
upperneck 12.2954 -4.59083 9.73466
head 7.92085 -1.66561 4.18159
rclavicle -7.65321e-015 -7.95139e-015
rhumerus -51.2734 5.58229 -95.0995
rradius 96.5972
rwrist -9.36316
rhand -15.0361 26.5564
rfingers 7.12502
rthumb 11.13 -3.12839
lclavicle -7.65321e-015 -7.95139e-015
lhumerus -40.6449 -9.01248 89.8882
lradius 109.276
lwrist 25.6131
lhand -19.8923 11.5527
lfingers 7.12502
lthumb 6.44382 41.4346
rfemur -30.3582 -4.55396 15.4972
rtibia 105.635
rfoot 3.01157 3.68636
rtoes -7.32547
lfemur -13.9899 -1.88517 -26.4583
ltibia 44.4727
lfoot -23.8871 3.52628
ltoes -16.5417
118
root 0.468168 16.7124 15.0039 5.09403 -1.39205 3.21551
lowerback 11.2942 -0.198261 -4.69316
upperback 0.779009 -0.812042 0.79608
thorax -5.44648 -0.277644 3.6148
lowerneck -22.3569 -3.92869 -9.04905
upperneck 12.191 -4.22671 9.43016
head 7.80793 -1.51587 4.0862
rclavicle -1.799e-014 -2.38542e-015
rhumerus -52.3636 6.39754 -95.2011
rradius 97.2078
rwrist -9.84847
rhand -14.7154 26.6836
rfingers 7.12502
rthumb 11.4392 -2.98436
lclavicle -1.799e-014 -2.38542e-015
lhumerus -40.2547 -8.03744 89.761
lradius 109.953
lwrist 25.696
lhand -19.3425 10.2598
lfingers 7.12502
lthumb 6.97458 40.1249
rfemur -32.9945 -5.02591 15.7052
rtibia 105.048
rfoot 2.63672 4.12269
rtoes -6.75982
lfemur -12.4422 -2.46268 -26.6976
ltibia 43.5203
lfoot -22.9255 3.35625
ltoes -17.6457
